<mxfile host="app.diagrams.net" modified="2022-04-14T11:35:49.398Z" agent="5.0 (Windows NT 10.0; Win64; x64) AppleWebKit/537.36 (KHTML, like Gecko) Chrome/100.0.4896.88 Safari/537.36" etag="J_ICtm8vfgC4Hi-pFuv9" version="17.4.0" type="github">
  <diagram id="h3tWT8Gw_kgJmUAGI0rl" name="Page-1">
    <mxGraphModel dx="1422" dy="762" grid="0" gridSize="10" guides="1" tooltips="1" connect="1" arrows="1" fold="1" page="1" pageScale="1" pageWidth="827" pageHeight="1169" math="0" shadow="0">
      <root>
        <mxCell id="0" />
        <mxCell id="1" parent="0" />
        <mxCell id="Uox8qIfolB3lt7ghXZoM-8" value="" style="shape=singleArrow;direction=south;whiteSpace=wrap;html=1;rounded=0;sketch=0;fillColor=#d5e8d4;strokeColor=#82b366;" vertex="1" parent="1">
          <mxGeometry x="158" y="360" width="63" height="100" as="geometry" />
        </mxCell>
        <mxCell id="Uox8qIfolB3lt7ghXZoM-6" value="" style="shape=singleArrow;direction=south;whiteSpace=wrap;html=1;rounded=0;sketch=0;fillColor=#ffe6cc;strokeColor=#d79b00;" vertex="1" parent="1">
          <mxGeometry x="159" y="277" width="62" height="100" as="geometry" />
        </mxCell>
        <mxCell id="Uox8qIfolB3lt7ghXZoM-7" value="&lt;font style=&quot;font-size: 19px&quot; color=&quot;#ff9933&quot;&gt;let s=String::from(&quot;Hello&quot;);&lt;/font&gt;" style="text;html=1;strokeColor=none;fillColor=none;align=center;verticalAlign=middle;whiteSpace=wrap;rounded=0;sketch=0;" vertex="1" parent="1">
          <mxGeometry x="211" y="267" width="257" height="41" as="geometry" />
        </mxCell>
        <mxCell id="Uox8qIfolB3lt7ghXZoM-9" value="&lt;font style=&quot;font-size: 19px&quot; color=&quot;#4d9900&quot;&gt;let b=s + &quot;World&quot;;&lt;/font&gt;" style="text;html=1;strokeColor=none;fillColor=none;align=center;verticalAlign=middle;whiteSpace=wrap;rounded=0;sketch=0;" vertex="1" parent="1">
          <mxGeometry x="200" y="350" width="207" height="41" as="geometry" />
        </mxCell>
        <mxCell id="Uox8qIfolB3lt7ghXZoM-10" value="&lt;font style=&quot;font-size: 19px&quot;&gt;b&lt;/font&gt;" style="text;html=1;strokeColor=none;fillColor=none;align=center;verticalAlign=middle;whiteSpace=wrap;rounded=0;sketch=0;fontSize=14;fontColor=#4D9900;" vertex="1" parent="1">
          <mxGeometry x="103" y="354" width="60" height="30" as="geometry" />
        </mxCell>
        <mxCell id="Uox8qIfolB3lt7ghXZoM-11" value="&lt;font color=&quot;#ff9933&quot; style=&quot;font-size: 19px&quot;&gt;s&lt;/font&gt;" style="text;html=1;strokeColor=none;fillColor=none;align=center;verticalAlign=middle;whiteSpace=wrap;rounded=0;sketch=0;fontSize=14;fontColor=#4D9900;" vertex="1" parent="1">
          <mxGeometry x="103" y="272" width="60" height="30" as="geometry" />
        </mxCell>
        <mxCell id="Uox8qIfolB3lt7ghXZoM-12" value="&lt;font color=&quot;#000000&quot;&gt;(Can&#39;t not use s anymore)&lt;/font&gt;" style="text;html=1;strokeColor=none;fillColor=none;align=center;verticalAlign=middle;whiteSpace=wrap;rounded=0;sketch=0;fontSize=19;fontColor=#FF9933;" vertex="1" parent="1">
          <mxGeometry x="250" y="430" width="226" height="30" as="geometry" />
        </mxCell>
      </root>
    </mxGraphModel>
  </diagram>
</mxfile>
